<svg version="1.0" xmlns="http://www.w3.org/2000/svg" width="350" height="250" fill="#603814">
    <path
        d="m175 6s0 209 0 209c-17 0-48-6-61-7-7-3-11-4-28-12-11-7-12-8-15-11-2-2-5-6-8-9-7-8-11-16-12-30-2-14-1-22 3-39l3-12-12-6c-9-5-14-9-24-19-7-6-10-9-13-15-2-6-2-7-2-12 0-4 1-10 4-14 5-7 15-10 30-10 17 0 29 4 42 15 3 2 6 4 7 4s5-3 9-7c12-11 27-19 42-23 9-2 31-4 35-3zm-65 69c-6 3-12 10-15 16s-3 18 0 24c8 18 31 26 47 15 7-5 11-10 13-17 6-16-5-35-22-41-5-2-18 0-23 3z" />
    <path
        d="m174 6s0 209 0 209c17 0 48-6 61-7 7-3 11-4 28-12 11-7 12-8 15-11 2-2 5-6 8-9 7-8 11-16 12-30 2-14 1-22-3-39l-3-12 12-6c9-5 14-9 24-19 7-6 10-9 13-15 2-6 2-7 2-12 0-4-1-10-4-14-5-7-15-10-30-10-17 0-29 4-42 15-3 2-6 4-7 4s-5-3-9-7c-12-11-27-19-42-23-9-2-31-4-35-3zm65 69c6 3 12 10 15 16s3 18 0 24c-8 18-31 26-47 15-7-5-11-10-13-17-6-16 5-35 22-41 5-2 18 0 23 3z" />
    <path
        d="m133 110c-5 0-7-2-7-6s2-7 7-7 7 3 7 7-3 6-7 6zm-17 17c9 3 18 2 25-5 8-7 11-16 8-26-2-6-8-13-13-16-20-10-42 8-36 29 2 7 9 15 16 18z" />
    <path
        d="m216 110c5 0 7-2 7-6s-2-7-7-7-7 3-7 7 3 6 7 6zm17 17c-9 3-18 2-25-5-8-7-11-16-8-26 2-6 8-13 13-16 20-10 42 8 36 29-2 7-9 15-16 18z" />
</svg>